<svg xmlns="http://www.w3.org/2000/svg" width="1200" height="1200"><g fill="#786B61"><path d="M751.846 241.794c-6.561-8.017-12.971-16.18-19.049-24.583-9.819-13.562-28.976-34.925-21.138-53.14 7.276-16.917 26.894-12.281 40.556-7.991-16.595-5.048-24.591 14.999-18.77 27.759 2.053 4.486 5.509 8.092 9.816 10.989.147-4.518 1.539-9.09 3.484-12.867 3.502-6.857 8.257-10.693 15.357-11.848.866-.2 1.756-.308 2.683-.322-.937.067-1.824.179-2.683.322-5.778 1.295-10.005 6.342-12.099 11.78-1.277 3.298-2.647 10.009-2.196 15.554 4.143 2.117 8.753 3.763 13.483 5.011-.64-4.95.014-10.302 2.15-14.48 3.957-7.742 9.992-8.468 17.694-10.192-3.735.833-7.259 1.663-10.156 4.385-2.529 2.365-4.332 6.393-4.883 9.755-.608 3.574-.884 7.495.043 11.04.078.251.143.475.215.715 5.598 1.177 11.182 1.903 16.18 2.336-.326-2.962.168-6.249.633-8.635 1.356-6.643 4.404-8.496 9.716-12.274-5.76 4.085-8.45 13.927-6.164 21.242.966.053 1.942.114 2.84.168 4.325.208 8.639.158 12.878-.136-1.907-6.414 1.763-14.466 8.145-16.602-6.75 2.265-6.532 10.403-3.452 16.154 4.443-.544 8.789-1.405 13.007-2.615-.73-3.827.107-8.096 3.395-10.163-2.641 3.281-2.215 6.521-.44 9.247 11.962-3.992 22.648-10.978 30.808-21.9-18.215 15.872-37.937 6.285-55.14-5.975-15.561-11.104-28.965-25.76-46.519-33.877-14.001-6.471-36.878-4.44-45.035 9.988a40.005 40.005 0 0 0-1.631 3.226c-10.493 23.571 8.038 49.123 23.341 65.332 7.42 7.869 15.1 15.053 22.931 22.597zm31.641 304.601a179.997 179.997 0 0 1-5.569 6.207c1.909-2.025 3.734-4.117 5.569-6.207z"/><path d="M501.762 192.152c36.045 11.572 72.98 19.746 109.73 28.522 75.888 18.143 161.825 25.223 195.516 107.54 28.772 70.236 27.38 158.577-23.521 218.181 8.027-9.211 15.243-19.042 21.553-29.598 40.105-67.059 39.39-161.117-4.038-224.427-36.453-53.155-111.303-74.969-168.955-95.521-27.276-9.716-56.603-21.528-74.496-45.571-17.271-23.202-10.131-57.126 12.32-74.654a79.827 79.827 0 0 1 8.586-5.885c-3.245 5.359-4.364 11.852-1.946 18.724 5.073 14.284 26.085 20.33 38.609 11.791 11.343-7.742 12.077-24.04 3.563-34.353-11.698-14.191-31.491-13.926-46.909-6.249-21.725 10.814-36.578 32.632-38.184 56.929-1.649 24.991 15.761 45.861 35.132 59.547 22.351 15.798 48.111 24.741 73.763 33.619a553.213 553.213 0 0 1 47.646 19.031c-5.906-1.477-11.819-2.876-17.683-4.253-34.592-8.117-69.188-16.252-103.658-24.819-31.191-7.731-66.634-13.118-94.844-29.573-17.844-10.41-31.956-22.172-38.595-42.481-6.454-19.76-7.874-43.446 10.449-56.6-5.613 5.556-2.158 19.368 1.166 24.097 5.799 8.303 16.423 13.318 26.572 12.184 19.024-2.111 32.778-23.578 21.947-40.806-8.253-13.129-26.397-19.353-41.285-17.061-24.712 3.803-35.866 25.17-37.329 48.87-.93 15.242 3.159 32.123 10.983 45.134 16.096 26.748 45.537 38.593 73.908 47.682z"/><path d="M659.517 238.128c6.99.905 13.836 2.536 20.776 3.434-25.57-8.392-56.37-11.733-83.171-13.285-34.936-2.032-77.617-6.131-104.739 21.195-16.184 16.305-19.636 42.352-12.932 64.477 2.776 9.133 7.273 17.611 13.351 24.458-2.2-5.473-3.342-12.792-3.105-19.464-1.746-2.114-4.15-3.714-6.393-3.324 1.957-1.842 4.539-1.602 6.715-.39.143-1.284.365-2.529.659-3.706.365-1.456.876-2.823 1.456-4.128-3.213-2.172-7.63-3.96-10.095-1.867 3.023-3.284 8.045-3.642 11.687-1.188a27.924 27.924 0 0 1 5.953-6.843.877.877 0 0 1-.029-.211c-1.223-7.005-7.62-19.65-16.205-18.956 9.186-3.681 17.643 8.071 19.99 16.509a38.865 38.865 0 0 1 5.108-2.64 35.654 35.654 0 0 0 2.279-5.399c3.087-9.29 4.339-26.876-8.986-28.718 2.172-.615 3.846-.007 5.874.708 5.849 2.018 8.066 6.407 9.43 12.37 1.051 4.539.873 13.107-1.771 18.705a53.238 53.238 0 0 1 10.767-1.638c.469-.04.973-.04 1.459-.054a36.362 36.362 0 0 0 1.746-2.032c9.637-11.955 11.154-24.987.547-36.349 11.687 4.575 14.814 28.178 6.65 38.505 5.191.182 10.607.387 15.765-.114a38.147 38.147 0 0 0 2.328-3.656c5.281-9.494 10.131-28.304 1.217-37.3 9.619 7.49 10.059 27.885 3.355 39.779 3.527-.952 6.786-2.479 9.587-4.865 11.482-9.83 12.728-28.854 1.159-38.531 12.124-5.305 22.53-8.127 35.83-8.556 17.786-.572 36.059.798 53.738 3.074zm-73.71 124.041c15.139-.021 27.377-12.299 27.348-27.444-.025-15.143-12.309-27.378-27.445-27.356-15.132.029-27.38 12.324-27.356 27.452.026 15.146 12.325 27.38 27.453 27.348zm-58.385 363.698c5.448.158 11.301 1.596 18.133 4.393-6.933-7.756-21.543-17.121-30.893-21.288-21.664-9.63-48.909-7.094-69.12 4.879-19.199 11.343-25.256 30.231-25.846 51.677.286-10.55 4.161-21.757 10.467-30.21 4.432-5.939 18.101-18.91 25.946-17.486-4.843 5.065-6.572 15.211-1.774 20.62 1.785 2.014 4.078 3.405 6.65 4.336-.804-2.386-1.374-4.754-1.288-7.566.083-2.776.018-6.128 1.32-8.65 1.413-2.719 4.307-4.26 6.636-6.139-1.399 1.123-2.347 2.533-3.098 4.136-3.158 6.618-2.354 14.642 2.533 19.542 3.399.33 7.015.129 10.66-.468a56.509 56.509 0 0 1-1.152-2.801c-3.499-9.748-.501-18.362 4.074-26.884-2.235 4.186-2.865 11.086-3.012 15.801-.118 3.967.948 9.612 3.577 13.214a70.176 70.176 0 0 0 9.63-2.923c-.922-1.967-1.785-3.852-2.153-6.117-1.273-8.117-1.824-20.215 6.046-25.406-1.077 1.02-1.703 2.318-2.218 3.674-1.481 3.975-2.361 8.854-2.165 13.064.179 3.238 1.331 10.038 3.828 13.386 2.637-1.18 4.983-2.421 6.865-3.656a62.21 62.21 0 0 1 1.982-1.259c-.662-3.52-1.173-6.553-.497-10.496.733-4.285 2.923-9.455 7.394-10.975-4.736 3.606-7.247 14.062-4.446 19.997 3.095-1.789 6.049-3.234 8.975-4.282-.708-4.043 3.606-10.296 6.575-11.559-2.547 1.367-5.037 7.301-4.153 10.778 2.733-.776 5.473-1.226 8.288-1.316.891-1.943 3.109-3.528 5.073-3.577-1.095.803-2.515 2.134-2.837 3.561zm7.552-138.866c-.275-11.189 1.643-27.062-6.074-36.463a21.4 21.4 0 0 0-.922-1.045c-7.995-8.392-22.372-8.235-31.931-2.987-1.757.958-19.142 16.216-18.341 16.802 12.11 8.529 17.436 18.555 24.68 30.915-11.977-3.853-22.784-10.364-32.514-18.005-6.693 10.131-17.335 19.307-13.88 32.668 3.802 14.667 21.624 22.522 35.518 20.058 22.476-4.836 43.879-3.673 63.966 7.441-12.732-7.051-20.184-36.18-20.502-49.384zm-51.638-133.178c-11.179.658-27.101-.73-36.234 7.315-.347.3-.684.615-.998.948-8.139 8.271-7.491 22.63-1.925 32.014 1.026 1.72 16.849 18.58 17.41 17.761 8.131-12.378 17.951-18.055 30.053-25.71-3.437 12.109-9.572 23.117-16.881 33.107 10.345 6.35 19.879 16.677 33.126 12.771 14.527-4.279 21.774-22.372 18.842-36.17-5.591-22.308-5.166-43.739 5.265-64.19-6.614 12.975-35.476 21.388-48.658 22.154zm-61.794 91.589c.022 12.831 10.446 23.224 23.288 23.191 12.818-.018 23.217-10.442 23.196-23.278-.026-12.831-10.457-23.216-23.281-23.184-12.84.018-23.224 10.435-23.203 23.271zm-60.946-3.724c.286.35.593.679.93 1.019 8.149 8.253 22.501 7.849 31.974 2.433 1.75-.991 18.856-16.545 18.051-17.118-12.26-8.313-17.768-18.248-25.224-30.482 12.048 3.642 22.959 9.962 32.828 17.425 6.511-10.231 17-19.582 13.318-32.9-4.049-14.603-22.025-22.147-35.873-19.429-22.39 5.223-43.814 4.432-64.09-6.321 12.857 6.83 20.812 35.823 21.371 49.016.469 11.187-1.173 27.092 6.715 36.357zm-9.051 244.546c-22.948 19.399-12.241 45.363 2.701 65.12-4.007-5.298-7.058-12.059-7.649-18.759-.894-.336-1.835-.547-2.747-.705.626-.615 1.603-.937 2.629-1.034-.061-2.733.344-5.42 1.252-7.989-1.602-2.003-4.085-3.405-6.468-3.717 3.188-.794 5.673-.289 7.412 1.528a20.526 20.526 0 0 1 3.796-5.28c.891-.887 1.925-1.667 3.076-2.396-.648-4.926-1.935-10.786-6.296-13.544 4.15-.519 9.534 6.186 10.622 11.279 2.89-1.345 5.991-2.551 8.853-4.003 1.166-6.646.315-13.719-5.098-18.312 7.041 2.168 9.334 9.962 8.156 16.581 3.317-2.125 5.946-4.883 6.865-9.055.812-3.742-3.287-16.158-8.621-11.915 10.535-8.407 25.391 1.928 31.616 11.343-9.207-22.542-33.092-23.497-50.099-9.142zm86.868-156.832c.361-.283.701-.59 1.044-.894 8.515-7.88 8.572-22.243 3.459-31.884-.941-1.774-15.93-19.385-16.538-18.595-8.7 11.987-18.795 17.178-31.269 24.24 4.024-11.926 10.689-22.623 18.47-32.249-10.038-6.84-19.038-17.625-32.474-14.348-14.713 3.577-22.823 21.292-20.552 35.214 4.508 22.555 3.045 43.936-8.371 63.865 7.24-12.635 36.471-19.657 49.685-19.804 11.189-.1 27.041 2.05 36.546-5.545z"/><path d="M598.578 1079.346c-32.696-31.258-53.663-73.874-62.385-118.043-3.477-17.637-4.629-34.639-4.399-52.611.336-26.193 2.725-47.803 8.163-73.209 17.979-83.769 77.498-179.862 171.967-185.464 70.583-4.189 130.874 70.09 94.018 135.568 19.618-34.847 23.878-70.758-2.061-104.07-20.383-26.161-52.625-41.782-85.875-41.532-26.926.185-50.658 7.336-71.607 19.224.3-.361.587-.701.895-1.045 16.098-15.64 32.493-30.975 48.322-46.819 35.683-35.708 69.556-74.604 84.71-123.681 13.368-43.32 17.65-93.785 1.241-136.963-15.976-42.073-51.337-70.827-96.014-77.487-43.146-6.421-83.59 10.227-115.804 38.995 35.322-30.238 95.771-44.884 139.6-26.976 45.65 18.634 66.312 67.449 68.319 114.112 1.567 36.516-4.897 75.173-20.265 109.007 3.631-11.115 6.189-22.723 7.287-34.993 2.912-32.217-5.312-67.257-35.326-84.434-31.69-18.154-68.226-15.357-95.424 9.827-4.092 3.785-7.476 8.449-9.894 13.48 8.85-16.524 38.162-25.277 54.235-25.306 20.204-.036 42.405 3.888 56.271 20.201 20.634 24.307 19.793 60.163 10.864 89.106-10.525 34.052-29.548 62.112-51.367 88.341a101.325 101.325 0 0 0 1.785-7.319c3.742-18.538 3.048-41.031-12.27-54.504-17.168-15.099-49.116-17.607-65.414.376-5.027 4.969-8.156 11.88-8.139 19.524.032 15.132 12.335 27.38 27.456 27.345 15.139-.025 27.38-12.309 27.355-27.448-.029-13.655-10.07-24.931-23.152-26.98 17.915-.922 36.288 8.278 40.53 27.012 4.497 19.837-1.166 41.096-10.481 58.771-18.441 34.993-49.739 59.809-74.708 89.701-25.777 28.328-48.643 59.329-62.169 95.312-21.171 56.26-26.966 119.957-12.517 178.638 14.212 57.716 47.052 108.774 97.942 140.562 6.486 4.046 13.115 7.816 19.833 11.362-86.013-24.766-155.508-84.778-192.029-168.49-41.396-94.862-41.543-207.757-12.402-306.375a1169.152 1169.152 0 0 0-7.398 26.074c-27.148 100.275-36.675 195.806 12.721 294.961 47.245 94.844 141.159 156.345 243.269 176.628 34.803 6.925 71.127 9.508 106.578 10.277-33.762-5.863-68.391-9.819-101.241-20.312-33.379-10.651-65.707-26.154-91.02-50.343z"/><path d="M675.635 425.77c-.021-15.135-12.316-27.388-27.462-27.352-15.135.021-27.38 12.313-27.356 27.449.029 15.132 12.321 27.373 27.452 27.352 15.151-.033 27.392-12.314 27.366-27.449zm70.126 663.316c15.161.791 29.942 1.177 41.972 3.917-7.172-1.624-15.314-3.96-21.85-7.362-28.811-15.003-23.854-49.599-37.665-74.386-17.393-31.237-61.872-40.155-92.301-24.547-39.483 20.23-34.442 95.843 6.052 113.289-21.875-20.133-30.761-56.045-16.187-82.7 12.091-22.143 70.175-35.819 75.283-.555-8.435-6.378-20.862-4.94-27.945 2.927-8.278 9.186-9.183 26.085-4.046 37.021 7.233-16.069 27.038-25.682 44.018-16.416-9.701-4.808-19.249.504-26.686 7.494-5.509 5.151-8.139 12.152-7.273 19.657.136 1.234.437 2.361.791 3.416 4.235 3.785 9.068 6.715 14.291 9.044-.057-.916-.1-1.85-.089-2.805.179-8.4 3.563-15.107 11.307-18.902 8.382-4.1 13.791-.211 22.029.226-8.217-.433-17.819 1.245-22.294 8.915-2.869 4.868-3.473 10.967-1.539 16.036 4.307 1.277 8.8 2.229 13.4 3.005.269-10.793 10.145-22.862 20.988-15.701-7.874-.372-14.13 9.408-12.732 16.845 5.63.659 11.347 1.066 17.049 1.385 1.012-3.935 3.875-6.8 8.926-5.273-4.49.011-5.788 2.562-5.499 5.47zm-103.612 10.986c-.064-.018-.118-.047-.179-.075.036.04.089.082.133.118.611.265.629.25.046-.043zm51.785-288.239c1.864-11.966 7.723-24.747-.988-35.461-9.573-11.755-29.043-11.462-40.656-3.431-18.419 13.765-38.345 21.625-61.246 19.897 14.516 1.098 33.43 24.462 39.228 36.346 4.901 10.055 9.77 25.287 20.723 30.611.404.2.826.397 1.252.565 10.775 4.289 23.778-1.832 30.278-10.592 1.188-1.606 10.642-22.708 9.677-22.923-14.563-2.704-23.585-9.591-35.322-17.811 12.503-1.493 25.016-.077 37.054 2.799zm54.489 65.292c-1.56-1.245-22.358-11.354-22.591-10.406-3.177 14.488-10.349 23.274-18.927 34.743-1.106-12.545.705-25.016 3.974-36.957-11.92-2.251-24.5-8.504-35.494-.129-12.038 9.172-12.378 28.679-4.715 40.513 13.176 18.859 20.398 39.031 17.926 61.861 1.57-14.474 25.534-32.628 37.587-38.062 10.202-4.575 25.585-8.958 31.258-19.714.215-.412.407-.819.59-1.245 4.654-10.635-1.062-23.81-9.608-30.604zm-9.473-26.428c11.745-5.148 17.082-18.859 11.923-30.618-5.173-11.748-18.881-17.092-30.633-11.913-11.74 5.162-17.074 18.87-11.919 30.618 5.169 11.744 18.885 17.078 30.629 11.913zm43.11-58.775c11.59-9.755 10.989-29.233 2.766-40.699-14.066-18.204-22.262-38.005-20.899-60.914-.865 14.52-23.928 33.816-35.683 39.801-9.973 5.065-25.141 10.199-30.282 21.224-.193.407-.368.837-.54 1.262-4.132 10.836 2.218 23.743 11.079 30.099 1.628 1.17 22.876 10.278 23.07 9.305 2.468-14.61 9.215-23.746 17.228-35.609 1.703 12.471.5 25.013-2.19 37.089 12.013 1.672 24.887 7.317 35.451-1.558zm46.845 39.5c-4.736-10.148-9.326-25.46-20.169-30.979a26.83 26.83 0 0 0-1.259-.565c-10.7-4.512-23.804 1.402-30.45 10.045-1.231 1.591-11.054 22.519-10.077 22.755 14.51 2.962 23.413 9.992 35 18.423-12.532 1.273-25.027-.365-37.003-3.467-2.071 11.959-8.16 24.633.379 35.497 9.348 11.912 28.833 11.959 40.574 4.132 18.656-13.436 38.735-20.959 61.59-18.817-14.489-1.347-32.987-25.062-38.585-37.024z"/></g></svg>