<?xml version="1.0" encoding="utf-8"?>

<svg version="1.1" id="Layer_1" xmlns="http://www.w3.org/2000/svg" xmlns:xlink="http://www.w3.org/1999/xlink" x="0px" y="0px"
	 width="1200px" height="1200px" viewBox="0 0 1200 1200" enable-background="new 0 0 1200 1200" xml:space="preserve">
<g>
	<path fill="#786B61" d="M751.846,241.794c-6.561-8.017-12.971-16.18-19.049-24.583c-9.819-13.562-28.976-34.925-21.138-53.14
		c7.276-16.917,26.894-12.281,40.556-7.991c-16.595-5.048-24.591,14.999-18.77,27.759c2.053,4.486,5.509,8.092,9.816,10.989
		c0.147-4.518,1.539-9.09,3.484-12.867c3.502-6.857,8.257-10.693,15.357-11.848c0.866-0.2,1.756-0.308,2.683-0.322
		c-0.937,0.067-1.824,0.179-2.683,0.322c-5.778,1.295-10.005,6.342-12.099,11.78c-1.277,3.298-2.647,10.009-2.196,15.554
		c4.143,2.117,8.753,3.763,13.483,5.011c-0.64-4.95,0.014-10.302,2.15-14.48c3.957-7.742,9.992-8.468,17.694-10.192
		c-3.735,0.833-7.259,1.663-10.156,4.385c-2.529,2.365-4.332,6.393-4.883,9.755c-0.608,3.574-0.884,7.495,0.043,11.04
		c0.078,0.251,0.143,0.475,0.215,0.715c5.598,1.177,11.182,1.903,16.18,2.336c-0.326-2.962,0.168-6.249,0.633-8.635
		c1.356-6.643,4.404-8.496,9.716-12.274c-5.76,4.085-8.45,13.927-6.164,21.242c0.966,0.053,1.942,0.114,2.84,0.168
		c4.325,0.208,8.639,0.158,12.878-0.136c-1.907-6.414,1.763-14.466,8.145-16.602c-6.75,2.265-6.532,10.403-3.452,16.154
		c4.443-0.544,8.789-1.405,13.007-2.615c-0.73-3.827,0.107-8.096,3.395-10.163c-2.641,3.281-2.215,6.521-0.44,9.247
		c11.962-3.992,22.648-10.978,30.808-21.9c-18.215,15.872-37.937,6.285-55.14-5.975c-15.561-11.104-28.965-25.76-46.519-33.877
		c-14.001-6.471-36.878-4.44-45.035,9.988c-0.604,1.073-1.144,2.143-1.631,3.226c-10.493,23.571,8.038,49.123,23.341,65.332
		C736.335,227.066,744.015,234.25,751.846,241.794z"/>
	<path fill="#786B61" d="M783.487,546.395c-1.803,2.097-3.645,4.168-5.569,6.207C779.827,550.577,781.652,548.485,783.487,546.395z"
		/>
	<path fill="#786B61" d="M501.762,192.152c36.045,11.572,72.98,19.746,109.73,28.522c75.888,18.143,161.825,25.223,195.516,107.54
		c28.772,70.236,27.38,158.577-23.521,218.181c8.027-9.211,15.243-19.042,21.553-29.598c40.105-67.059,39.39-161.117-4.038-224.427
		c-36.453-53.155-111.303-74.969-168.955-95.521c-27.276-9.716-56.603-21.528-74.496-45.571
		c-17.271-23.202-10.131-57.126,12.32-74.654c2.272-1.793,5.273-3.925,8.586-5.885c-3.245,5.359-4.364,11.852-1.946,18.724
		c5.073,14.284,26.085,20.33,38.609,11.791c11.343-7.742,12.077-24.04,3.563-34.353c-11.698-14.191-31.491-13.926-46.909-6.249
		c-21.725,10.814-36.578,32.632-38.184,56.929c-1.649,24.991,15.761,45.861,35.132,59.547
		c22.351,15.798,48.111,24.741,73.763,33.619c16.202,5.609,32.067,11.962,47.646,19.031c-5.906-1.477-11.819-2.876-17.683-4.253
		c-34.592-8.117-69.188-16.252-103.658-24.819c-31.191-7.731-66.634-13.118-94.844-29.573
		c-17.844-10.41-31.956-22.172-38.595-42.481c-6.454-19.76-7.874-43.446,10.449-56.6c-5.613,5.556-2.158,19.368,1.166,24.097
		c5.799,8.303,16.423,13.318,26.572,12.184c19.024-2.111,32.778-23.578,21.947-40.806c-8.253-13.129-26.397-19.353-41.285-17.061
		c-24.712,3.803-35.866,25.17-37.329,48.87c-0.93,15.242,3.159,32.123,10.983,45.134
		C443.95,171.218,473.391,183.063,501.762,192.152z"/>
	<path fill="#786B61" d="M659.517,238.128c6.99,0.905,13.836,2.536,20.776,3.434c-25.57-8.392-56.37-11.733-83.171-13.285
		c-34.936-2.032-77.617-6.131-104.739,21.195c-16.184,16.305-19.636,42.352-12.932,64.477c2.776,9.133,7.273,17.611,13.351,24.458
		c-2.2-5.473-3.342-12.792-3.105-19.464c-1.746-2.114-4.15-3.714-6.393-3.324c1.957-1.842,4.539-1.602,6.715-0.39
		c0.143-1.284,0.365-2.529,0.659-3.706c0.365-1.456,0.876-2.823,1.456-4.128c-3.213-2.172-7.63-3.96-10.095-1.867
		c3.023-3.284,8.045-3.642,11.687-1.188c1.61-2.608,3.606-4.894,5.953-6.843c-0.018-0.061-0.029-0.154-0.029-0.211
		c-1.223-7.005-7.62-19.65-16.205-18.956c9.186-3.681,17.643,8.071,19.99,16.509c1.621-1.005,3.331-1.874,5.108-2.64
		c0.902-1.728,1.667-3.531,2.279-5.399c3.087-9.29,4.339-26.876-8.986-28.718c2.172-0.615,3.846-0.007,5.874,0.708
		c5.849,2.018,8.066,6.407,9.43,12.37c1.051,4.539,0.873,13.107-1.771,18.705c3.548-0.919,7.205-1.47,10.767-1.638
		c0.469-0.04,0.973-0.04,1.459-0.054c0.608-0.658,1.199-1.344,1.746-2.032c9.637-11.955,11.154-24.987,0.547-36.349
		c11.687,4.575,14.814,28.178,6.65,38.505c5.191,0.182,10.607,0.387,15.765-0.114c0.837-1.173,1.624-2.386,2.328-3.656
		c5.281-9.494,10.131-28.304,1.217-37.3c9.619,7.49,10.059,27.885,3.355,39.779c3.527-0.952,6.786-2.479,9.587-4.865
		c11.482-9.83,12.728-28.854,1.159-38.531c12.124-5.305,22.53-8.127,35.83-8.556C623.565,234.482,641.838,235.852,659.517,238.128z"
		/>
	<path fill="#786B61" d="M585.807,362.169c15.139-0.021,27.377-12.299,27.348-27.444c-0.025-15.143-12.309-27.378-27.445-27.356
		c-15.132,0.029-27.38,12.324-27.356,27.452C558.38,349.967,570.679,362.201,585.807,362.169z"/>
	<path fill="#786B61" d="M527.422,725.867c5.448,0.158,11.301,1.596,18.133,4.393c-6.933-7.756-21.543-17.121-30.893-21.288
		c-21.664-9.63-48.909-7.094-69.12,4.879c-19.199,11.343-25.256,30.231-25.846,51.677c0.286-10.55,4.161-21.757,10.467-30.21
		c4.432-5.939,18.101-18.91,25.946-17.486c-4.843,5.065-6.572,15.211-1.774,20.62c1.785,2.014,4.078,3.405,6.65,4.336
		c-0.804-2.386-1.374-4.754-1.288-7.566c0.083-2.776,0.018-6.128,1.32-8.65c1.413-2.719,4.307-4.26,6.636-6.139
		c-1.399,1.123-2.347,2.533-3.098,4.136c-3.158,6.618-2.354,14.642,2.533,19.542c3.399,0.33,7.015,0.129,10.66-0.468
		c-0.401-0.923-0.798-1.85-1.152-2.801c-3.499-9.748-0.501-18.362,4.074-26.884c-2.235,4.186-2.865,11.086-3.012,15.801
		c-0.118,3.967,0.948,9.612,3.577,13.214c3.337-0.748,6.607-1.767,9.63-2.923c-0.922-1.967-1.785-3.852-2.153-6.117
		c-1.273-8.117-1.824-20.215,6.046-25.406c-1.077,1.02-1.703,2.318-2.218,3.674c-1.481,3.975-2.361,8.854-2.165,13.064
		c0.179,3.238,1.331,10.038,3.828,13.386c2.637-1.18,4.983-2.421,6.865-3.656c0.662-0.443,1.32-0.851,1.982-1.259
		c-0.662-3.52-1.173-6.553-0.497-10.496c0.733-4.285,2.923-9.455,7.394-10.975c-4.736,3.606-7.247,14.062-4.446,19.997
		c3.095-1.789,6.049-3.234,8.975-4.282c-0.708-4.043,3.606-10.296,6.575-11.559c-2.547,1.367-5.037,7.301-4.153,10.778
		c2.733-0.776,5.473-1.226,8.288-1.316c0.891-1.943,3.109-3.528,5.073-3.577C529.164,723.109,527.744,724.44,527.422,725.867z"/>
	<path fill="#786B61" d="M534.974,587.001c-0.275-11.189,1.643-27.062-6.074-36.463c-0.293-0.358-0.601-0.701-0.922-1.045
		c-7.995-8.392-22.372-8.235-31.931-2.987c-1.757,0.958-19.142,16.216-18.341,16.802c12.11,8.529,17.436,18.555,24.68,30.915
		c-11.977-3.853-22.784-10.364-32.514-18.005c-6.693,10.131-17.335,19.307-13.88,32.668c3.802,14.667,21.624,22.522,35.518,20.058
		c22.476-4.836,43.879-3.673,63.966,7.441C542.744,629.334,535.292,600.205,534.974,587.001z"/>
	<path fill="#786B61" d="M483.336,453.823c-11.179,0.658-27.101-0.73-36.234,7.315c-0.347,0.3-0.684,0.615-0.998,0.948
		c-8.139,8.271-7.491,22.63-1.925,32.014c1.026,1.72,16.849,18.58,17.41,17.761c8.131-12.378,17.951-18.055,30.053-25.71
		c-3.437,12.109-9.572,23.117-16.881,33.107c10.345,6.35,19.879,16.677,33.126,12.771c14.527-4.279,21.774-22.372,18.842-36.17
		c-5.591-22.308-5.166-43.739,5.265-64.19C525.38,444.644,496.518,453.057,483.336,453.823z"/>
	<path fill="#786B61" d="M421.542,545.412c0.022,12.831,10.446,23.224,23.288,23.191c12.818-0.018,23.217-10.442,23.196-23.278
		c-0.026-12.831-10.457-23.216-23.281-23.184C431.905,522.159,421.521,532.576,421.542,545.412z"/>
	<path fill="#786B61" d="M360.596,541.688c0.286,0.35,0.593,0.679,0.93,1.019c8.149,8.253,22.501,7.849,31.974,2.433
		c1.75-0.991,18.856-16.545,18.051-17.118c-12.26-8.313-17.768-18.248-25.224-30.482c12.048,3.642,22.959,9.962,32.828,17.425
		c6.511-10.231,17-19.582,13.318-32.9c-4.049-14.603-22.025-22.147-35.873-19.429c-22.39,5.223-43.814,4.432-64.09-6.321
		c12.857,6.83,20.812,35.823,21.371,49.016C354.35,516.518,352.708,532.423,360.596,541.688z"/>
	<path fill="#786B61" d="M351.545,786.234c-22.948,19.399-12.241,45.363,2.701,65.12c-4.007-5.298-7.058-12.059-7.649-18.759
		c-0.894-0.336-1.835-0.547-2.747-0.705c0.626-0.615,1.603-0.937,2.629-1.034c-0.061-2.733,0.344-5.42,1.252-7.989
		c-1.602-2.003-4.085-3.405-6.468-3.717c3.188-0.794,5.673-0.289,7.412,1.528c0.944-1.871,2.161-3.631,3.796-5.28
		c0.891-0.887,1.925-1.667,3.076-2.396c-0.648-4.926-1.935-10.786-6.296-13.544c4.15-0.519,9.534,6.186,10.622,11.279
		c2.89-1.345,5.991-2.551,8.853-4.003c1.166-6.646,0.315-13.719-5.098-18.312c7.041,2.168,9.334,9.962,8.156,16.581
		c3.317-2.125,5.946-4.883,6.865-9.055c0.812-3.742-3.287-16.158-8.621-11.915c10.535-8.407,25.391,1.928,31.616,11.343
		C392.437,772.834,368.552,771.879,351.545,786.234z"/>
	<path fill="#786B61" d="M438.413,629.402c0.361-0.283,0.701-0.59,1.044-0.894c8.515-7.88,8.572-22.243,3.459-31.884
		c-0.941-1.774-15.93-19.385-16.538-18.595c-8.7,11.987-18.795,17.178-31.269,24.24c4.024-11.926,10.689-22.623,18.47-32.249
		c-10.038-6.84-19.038-17.625-32.474-14.348c-14.713,3.577-22.823,21.292-20.552,35.214c4.508,22.555,3.045,43.936-8.371,63.865
		c7.24-12.635,36.471-19.657,49.685-19.804C413.056,634.847,428.908,636.997,438.413,629.402z"/>
	<path fill="#786B61" d="M598.578,1079.346c-32.696-31.258-53.663-73.874-62.385-118.043c-3.477-17.637-4.629-34.639-4.399-52.611
		c0.336-26.193,2.725-47.803,8.163-73.209c17.979-83.769,77.498-179.862,171.967-185.464c70.583-4.189,130.874,70.09,94.018,135.568
		c19.618-34.847,23.878-70.758-2.061-104.07c-20.383-26.161-52.625-41.782-85.875-41.532c-26.926,0.185-50.658,7.336-71.607,19.224
		c0.3-0.361,0.587-0.701,0.895-1.045c16.098-15.64,32.493-30.975,48.322-46.819c35.683-35.708,69.556-74.604,84.71-123.681
		c13.368-43.32,17.65-93.785,1.241-136.963c-15.976-42.073-51.337-70.827-96.014-77.487c-43.146-6.421-83.59,10.227-115.804,38.995
		c35.322-30.238,95.771-44.884,139.6-26.976c45.65,18.634,66.312,67.449,68.319,114.112c1.567,36.516-4.897,75.173-20.265,109.007
		c3.631-11.115,6.189-22.723,7.287-34.993c2.912-32.217-5.312-67.257-35.326-84.434c-31.69-18.154-68.226-15.357-95.424,9.827
		c-4.092,3.785-7.476,8.449-9.894,13.48c8.85-16.524,38.162-25.277,54.235-25.306c20.204-0.036,42.405,3.888,56.271,20.201
		c20.634,24.307,19.793,60.163,10.864,89.106c-10.525,34.052-29.548,62.112-51.367,88.341c0.676-2.407,1.281-4.829,1.785-7.319
		c3.742-18.538,3.048-41.031-12.27-54.504c-17.168-15.099-49.116-17.607-65.414,0.376c-5.027,4.969-8.156,11.88-8.139,19.524
		c0.032,15.132,12.335,27.38,27.456,27.345c15.139-0.025,27.38-12.309,27.355-27.448c-0.029-13.655-10.07-24.931-23.152-26.98
		c17.915-0.922,36.288,8.278,40.53,27.012c4.497,19.837-1.166,41.096-10.481,58.771c-18.441,34.993-49.739,59.809-74.708,89.701
		c-25.777,28.328-48.643,59.329-62.169,95.312c-21.171,56.26-26.966,119.957-12.517,178.638
		c14.212,57.716,47.052,108.774,97.942,140.562c6.486,4.046,13.115,7.816,19.833,11.362
		c-86.013-24.766-155.508-84.778-192.029-168.49c-41.396-94.862-41.543-207.757-12.402-306.375
		c-2.58,8.721-5.055,17.421-7.398,26.074c-27.148,100.275-36.675,195.806,12.721,294.961
		c47.245,94.844,141.159,156.345,243.269,176.628c34.803,6.925,71.127,9.508,106.578,10.277
		c-33.762-5.863-68.391-9.819-101.241-20.312C656.219,1119.038,623.891,1103.535,598.578,1079.346z"/>
	<path fill="#786B61" d="M675.635,425.77c-0.021-15.135-12.316-27.388-27.462-27.352c-15.135,0.021-27.38,12.313-27.356,27.449
		c0.029,15.132,12.321,27.373,27.452,27.352C663.42,453.186,675.661,440.905,675.635,425.77z"/>
	<path fill="#786B61" d="M745.761,1089.086c15.161,0.791,29.942,1.177,41.972,3.917c-7.172-1.624-15.314-3.96-21.85-7.362
		c-28.811-15.003-23.854-49.599-37.665-74.386c-17.393-31.237-61.872-40.155-92.301-24.547
		c-39.483,20.23-34.442,95.843,6.052,113.289c-21.875-20.133-30.761-56.045-16.187-82.7c12.091-22.143,70.175-35.819,75.283-0.555
		c-8.435-6.378-20.862-4.94-27.945,2.927c-8.278,9.186-9.183,26.085-4.046,37.021c7.233-16.069,27.038-25.682,44.018-16.416
		c-9.701-4.808-19.249,0.504-26.686,7.494c-5.509,5.151-8.139,12.152-7.273,19.657c0.136,1.234,0.437,2.361,0.791,3.416
		c4.235,3.785,9.068,6.715,14.291,9.044c-0.057-0.916-0.1-1.85-0.089-2.805c0.179-8.4,3.563-15.107,11.307-18.902
		c8.382-4.1,13.791-0.211,22.029,0.226c-8.217-0.433-17.819,1.245-22.294,8.915c-2.869,4.868-3.473,10.967-1.539,16.036
		c4.307,1.277,8.8,2.229,13.4,3.005c0.269-10.793,10.145-22.862,20.988-15.701c-7.874-0.372-14.13,9.408-12.732,16.845
		c5.63,0.659,11.347,1.066,17.049,1.385c1.012-3.935,3.875-6.8,8.926-5.273C746.77,1083.627,745.472,1086.178,745.761,1089.086z"/>
	<path fill="#786B61" d="M642.149,1100.072c-0.064-0.018-0.118-0.047-0.179-0.075c0.036,0.04,0.089,0.082,0.133,0.118
		C642.714,1100.38,642.732,1100.365,642.149,1100.072z"/>
	<path fill="#786B61" d="M693.934,811.833c1.864-11.966,7.723-24.747-0.988-35.461c-9.573-11.755-29.043-11.462-40.656-3.431
		c-18.419,13.765-38.345,21.625-61.246,19.897c14.516,1.098,33.43,24.462,39.228,36.346c4.901,10.055,9.77,25.287,20.723,30.611
		c0.404,0.2,0.826,0.397,1.252,0.565c10.775,4.289,23.778-1.832,30.278-10.592c1.188-1.606,10.642-22.708,9.677-22.923
		c-14.563-2.704-23.585-9.591-35.322-17.811C669.383,807.541,681.896,808.957,693.934,811.833z"/>
	<path fill="#786B61" d="M748.423,877.125c-1.56-1.245-22.358-11.354-22.591-10.406c-3.177,14.488-10.349,23.274-18.927,34.743
		c-1.106-12.545,0.705-25.016,3.974-36.957c-11.92-2.251-24.5-8.504-35.494-0.129c-12.038,9.172-12.378,28.679-4.715,40.513
		c13.176,18.859,20.398,39.031,17.926,61.861c1.57-14.474,25.534-32.628,37.587-38.062c10.202-4.575,25.585-8.958,31.258-19.714
		c0.215-0.412,0.407-0.819,0.59-1.245C762.685,897.094,756.969,883.919,748.423,877.125z"/>
	<path fill="#786B61" d="M738.95,850.697c11.745-5.148,17.082-18.859,11.923-30.618c-5.173-11.748-18.881-17.092-30.633-11.913
		c-11.74,5.162-17.074,18.87-11.919,30.618C713.49,850.528,727.206,855.862,738.95,850.697z"/>
	<path fill="#786B61" d="M782.06,791.922c11.59-9.755,10.989-29.233,2.766-40.699c-14.066-18.204-22.262-38.005-20.899-60.914
		c-0.865,14.52-23.928,33.816-35.683,39.801c-9.973,5.065-25.141,10.199-30.282,21.224c-0.193,0.407-0.368,0.837-0.54,1.262
		c-4.132,10.836,2.218,23.743,11.079,30.099c1.628,1.17,22.876,10.278,23.07,9.305c2.468-14.61,9.215-23.746,17.228-35.609
		c1.703,12.471,0.5,25.013-2.19,37.089C758.622,795.152,771.496,800.797,782.06,791.922z"/>
	<path fill="#786B61" d="M828.905,831.422c-4.736-10.148-9.326-25.46-20.169-30.979c-0.415-0.196-0.833-0.39-1.259-0.565
		c-10.7-4.512-23.804,1.402-30.45,10.045c-1.231,1.591-11.054,22.519-10.077,22.755c14.51,2.962,23.413,9.992,35,18.423
		c-12.532,1.273-25.027-0.365-37.003-3.467c-2.071,11.959-8.16,24.633,0.379,35.497c9.348,11.912,28.833,11.959,40.574,4.132
		c18.656-13.436,38.735-20.959,61.59-18.817C853.001,867.099,834.503,843.384,828.905,831.422z"/>
</g>
</svg>
